<svg width="300" height="100" viewBox="0 0 300 100" fill="none" xmlns="http://www.w3.org/2000/svg">
<path d="M143.417 37.4923C142.176 37.4535 141.168 38.4231 141.129 39.6254C141.129 39.6642 141.129 39.7418 141.129 39.7806V50.7955C135.816 46.5292 128.02 47.3825 123.753 52.696C122.008 54.9068 121.038 57.6217 121.038 60.453C120.922 67.2792 126.352 72.903 133.178 73.0194C140.004 73.1357 145.628 67.7058 145.744 60.8796C145.744 60.7245 145.744 60.6082 145.744 60.453V39.7806C145.744 39.16 145.512 38.5783 145.085 38.1516C144.62 37.725 144.038 37.4923 143.417 37.4923ZM140.509 63.4395C139.733 65.3011 138.259 66.775 136.397 67.5895C134.458 68.4039 132.286 68.4039 130.347 67.5895C128.485 66.8138 127.05 65.3011 126.274 63.4782C125.46 61.5778 125.46 59.4058 126.274 57.4666C127.05 55.6049 128.524 54.1311 130.347 53.3553C132.286 52.5409 134.458 52.5409 136.397 53.3553C138.259 54.1698 139.733 55.6437 140.509 57.5054C141.323 59.367 141.323 61.539 140.509 63.4395Z" fill="#2496ED"/>
<path d="M169.209 51.7262C164.4 46.9168 156.565 46.9168 151.756 51.7262C149.429 54.0533 148.149 57.1949 148.149 60.4528C148.033 67.279 153.463 72.9028 160.289 73.0191C167.115 73.1355 172.739 67.7056 172.855 60.8794C172.855 60.7243 172.855 60.6079 172.855 60.4528C172.855 58.8238 172.545 57.2336 171.924 55.721C171.304 54.2084 170.373 52.8509 169.209 51.7262ZM167.619 63.4004C167.231 64.3313 166.65 65.1458 165.951 65.8439C165.253 66.542 164.4 67.1238 163.508 67.5117C161.569 68.3262 159.397 68.3262 157.458 67.5117C155.596 66.736 154.122 65.2233 153.346 63.4004C152.532 61.5 152.532 59.328 153.346 57.3888C154.122 55.5271 155.596 54.0921 157.458 53.2776C159.397 52.4631 161.569 52.4631 163.508 53.2776C164.439 53.6654 165.253 54.2472 165.951 54.9453C166.65 55.6434 167.231 56.4967 167.619 57.3888C168.434 59.3668 168.434 61.5388 167.619 63.4004Z" fill="#2496ED"/>
<path d="M220.289 50.3685C220.289 50.0583 220.212 49.748 220.095 49.4765C219.979 49.205 219.785 48.9723 219.591 48.7396C219.397 48.5456 219.126 48.3517 218.854 48.2354C218.583 48.119 218.272 48.0414 217.962 48.0414C217.535 48.0414 217.109 48.1578 216.721 48.3905L203.534 56.962V39.819C203.534 39.1984 203.301 38.6167 202.875 38.19C202.448 37.7634 201.866 37.4919 201.246 37.4919C199.966 37.4919 198.957 38.5003 198.919 39.7802C198.919 39.7802 198.919 39.7802 198.919 39.819V70.4592C198.919 71.0797 199.151 71.6615 199.578 72.0882C200.005 72.5536 200.586 72.7863 201.207 72.7863C201.827 72.7863 202.409 72.5536 202.836 72.0882C203.263 71.6615 203.534 71.0797 203.495 70.4592V62.5083L206.171 60.7629L216.372 72.2045C216.798 72.5924 217.341 72.8251 217.923 72.7863C218.234 72.7863 218.544 72.7475 218.815 72.5924C219.087 72.476 219.319 72.3209 219.552 72.0882C219.746 71.8555 219.94 71.6227 220.056 71.3512C220.173 71.0797 220.25 70.7695 220.25 70.4592C220.25 69.8774 220.018 69.2956 219.63 68.869L210.166 58.2031L219.397 52.1914C220.018 51.8036 220.328 51.1055 220.289 50.3685Z" fill="#2496ED"/>
<path d="M182.008 54.9451C182.707 54.247 183.56 53.6652 184.491 53.2774C185.46 52.8895 186.469 52.6568 187.516 52.6568C188.447 52.6568 189.339 52.8119 190.192 53.1222C191.045 53.4713 191.86 53.9367 192.558 54.5573C192.985 54.9063 193.528 55.0615 194.071 55.0615C194.691 55.1003 195.312 54.8675 195.738 54.4021C196.165 53.9755 196.398 53.3549 196.398 52.7344C196.398 52.075 196.126 51.4157 195.583 50.989C193.372 49.011 190.502 47.925 187.516 48.0026C180.69 48.0026 175.143 53.5489 175.143 60.375C175.143 67.2012 180.651 72.7087 187.438 72.7474C190.425 72.7474 193.295 71.7003 195.544 69.761C196.01 69.3344 196.281 68.7138 196.281 68.0545C196.32 66.8133 195.35 65.8049 194.148 65.7661C194.109 65.7661 194.032 65.7661 193.993 65.7661C193.45 65.7661 192.946 65.9213 192.519 66.2316C191.821 66.8521 191.045 67.3175 190.192 67.6666C189.339 67.9769 188.408 68.132 187.516 68.132C186.469 68.132 185.46 67.9381 184.491 67.5115C183.56 67.1236 182.745 66.5418 182.008 65.8437C178.983 62.8185 178.983 57.9316 181.97 54.9063C182.008 54.9839 182.008 54.9839 182.008 54.9451Z" fill="#2496ED"/>
<path d="M266.094 49.6318C265.629 49.2051 265.124 48.8949 264.543 48.7009C263.883 48.4682 263.185 48.3131 262.487 48.2355C261.789 48.1579 261.091 48.1192 260.393 48.1192C258.996 48.1192 257.561 48.3519 256.243 48.8561C254.924 49.3215 253.722 50.0196 252.636 50.8729V50.4075C252.597 49.1276 251.511 48.1579 250.231 48.1967C249.029 48.2355 248.059 49.2051 248.02 50.4075V70.5369C248.059 71.8168 249.145 72.7864 250.425 72.7477C251.627 72.7089 252.597 71.7393 252.636 70.5369V60.4916C252.636 59.4444 252.83 58.436 253.256 57.4664C253.644 56.5355 254.187 55.721 254.924 55.0229C255.622 54.3248 256.475 53.743 257.367 53.3551C258.337 52.9673 259.346 52.7346 260.393 52.7346C261.44 52.7346 262.448 52.9285 263.418 53.2776C263.728 53.4327 264.039 53.5103 264.388 53.5103C264.698 53.5103 265.008 53.4715 265.28 53.3163C265.551 53.2 265.784 53.0449 266.017 52.8121C266.21 52.6182 266.404 52.3467 266.521 52.0752C266.637 51.8037 266.715 51.4935 266.715 51.1832C266.753 50.6014 266.521 50.0584 266.094 49.6318Z" fill="#2496ED"/>
<path d="M244.685 55.721C242.707 51.1444 238.208 48.1579 233.243 48.1192C226.417 48.1192 220.91 53.6266 220.871 60.4528C220.871 67.279 226.417 72.8252 233.243 72.8252C236.191 72.8252 239.061 71.778 241.311 69.8388C241.349 69.8 241.388 69.7612 241.388 69.7612C241.582 69.6061 241.776 69.4121 241.892 69.1794C242.629 68.0935 242.358 66.6584 241.311 65.9215C240.418 65.3397 239.255 65.4561 238.479 66.193C238.402 66.2706 238.169 66.4645 238.169 66.5033L238.13 66.542C237.471 67.085 236.734 67.5505 235.919 67.822C235.066 68.1322 234.174 68.2874 233.243 68.2486C232.39 68.2486 231.576 68.1322 230.761 67.8607C229.985 67.5892 229.248 67.2402 228.589 66.736C227.93 66.2706 227.348 65.6888 226.883 65.0294C226.378 64.3701 226.029 63.5944 225.797 62.8187H243.25C243.87 62.8187 244.452 62.586 244.879 62.1593C245.344 61.7327 245.577 61.1509 245.538 60.5304C245.577 58.8626 245.267 57.2336 244.685 55.721ZM225.797 58.2033C226.029 57.3888 226.378 56.6519 226.883 55.9925C227.348 55.3332 227.93 54.7514 228.589 54.286C229.248 53.8206 229.985 53.4327 230.761 53.1612C231.537 52.8897 232.39 52.7734 233.204 52.7734C234.019 52.7734 234.872 52.8897 235.648 53.1612C237.199 53.6654 238.557 54.6738 239.526 55.9925C240.031 56.6519 240.38 57.4276 240.651 58.2033H225.797Z" fill="#2496ED"/>
<path d="M258.221 69.4509C257.329 69.4509 256.631 70.1878 256.631 71.0799C256.631 71.972 257.368 72.6701 258.26 72.6701C259.152 72.6701 259.85 71.9332 259.85 71.0799C259.85 70.1491 259.113 69.4509 258.221 69.4509ZM258.221 72.321C257.523 72.3598 256.941 71.8168 256.902 71.1187C256.863 70.4206 257.406 69.8388 258.104 69.8C258.803 69.7612 259.384 70.3042 259.423 71.0023C259.423 71.0411 259.423 71.0411 259.423 71.0799C259.462 71.7393 258.919 72.321 258.26 72.321C258.26 72.321 258.26 72.321 258.221 72.321Z" fill="#2496ED"/>
<path d="M258.609 71.0799C258.803 71.0411 258.919 70.886 258.919 70.6921C258.919 70.5369 258.88 70.4206 258.764 70.343C258.609 70.2654 258.415 70.2266 258.221 70.2266C258.027 70.2266 257.794 70.2266 257.6 70.2654V71.8556H257.949V71.235H258.104C258.298 71.235 258.415 71.3126 258.453 71.4678C258.492 71.5841 258.531 71.7393 258.57 71.8556H258.958C258.88 71.7393 258.841 71.5841 258.841 71.4678C258.88 71.3126 258.764 71.1575 258.609 71.0799ZM258.143 70.9635H257.949V70.4981C258.027 70.4981 258.104 70.4981 258.143 70.4981C258.376 70.4981 258.492 70.6145 258.492 70.7308C258.531 70.886 258.337 71.0023 258.143 70.9635Z" fill="#2496ED"/>
<path d="M116.811 42.6888C116.578 42.4949 114.484 40.9047 109.985 40.9047C108.821 40.9047 107.619 41.021 106.455 41.215C105.602 35.2808 100.676 32.4108 100.482 32.2556L99.2801 31.5575L98.5044 32.6823C97.5348 34.1949 96.7979 35.9014 96.3712 37.6467C95.5568 41.021 96.061 44.2014 97.7675 46.9164C95.7119 48.0799 92.3764 48.3514 91.6783 48.3902H36.6037C35.1686 48.3902 34.0051 49.5537 34.0051 50.9888C33.9275 55.7981 34.742 60.6075 36.4097 65.1453C38.3102 70.1098 41.1415 73.7944 44.7873 76.0439C48.8985 78.5649 55.6083 80 63.1713 80C66.5844 80 69.9975 79.6897 73.3718 79.0692C78.0648 78.2159 82.5638 76.5869 86.7138 74.221C90.1269 72.243 93.1909 69.722 95.7895 66.7743C100.172 61.8486 102.771 56.3411 104.671 51.4542C104.943 51.4542 105.175 51.4542 105.447 51.4542C110.217 51.4542 113.165 49.5537 114.794 47.9248C115.88 46.9164 116.695 45.6752 117.276 44.279L117.625 43.2706L116.811 42.6888Z" fill="#2496ED"/>
<path d="M41.7232 46.8002H49.0924C49.4415 46.8002 49.7517 46.5287 49.7517 46.1408V39.5473C49.7517 39.1983 49.4802 38.888 49.0924 38.888H41.7232C41.3742 38.888 41.0639 39.1595 41.0639 39.5473V46.1408C41.1027 46.5287 41.3742 46.8002 41.7232 46.8002Z" fill="#2496ED"/>
<path d="M51.8849 46.8002H59.2541C59.6031 46.8002 59.9134 46.5287 59.9134 46.1408V39.5473C59.9134 39.1983 59.6419 38.888 59.2541 38.888H51.8849C51.5359 38.888 51.2256 39.1595 51.2256 39.5473V46.1408C51.2644 46.5287 51.5359 46.8002 51.8849 46.8002Z" fill="#2496ED"/>
<path d="M62.2405 46.8002H69.6096C69.9587 46.8002 70.269 46.5287 70.269 46.1408V39.5473C70.269 39.1983 69.9975 38.888 69.6096 38.888H62.2405C61.8914 38.888 61.5811 39.1595 61.5811 39.5473V46.1408C61.5811 46.5287 61.8526 46.8002 62.2405 46.8002Z" fill="#2496ED"/>
<path d="M72.4409 46.8002H79.8101C80.1592 46.8002 80.4694 46.5287 80.4694 46.1408V39.5473C80.4694 39.1983 80.1979 38.888 79.8101 38.888H72.4409C72.0919 38.888 71.7816 39.1595 71.7816 39.5473V46.1408C71.7816 46.5287 72.0919 46.8002 72.4409 46.8002Z" fill="#2496ED"/>
<path d="M51.8849 37.3759H59.2541C59.6031 37.3759 59.9134 37.0656 59.9134 36.7165V30.1231C59.9134 29.774 59.6419 29.4637 59.2541 29.4637H51.8849C51.5359 29.4637 51.2256 29.7352 51.2256 30.1231V36.7165C51.2644 37.0656 51.5359 37.3759 51.8849 37.3759Z" fill="#2496ED"/>
<path d="M62.2405 37.3759H69.6096C69.9587 37.3759 70.269 37.0656 70.269 36.7165V30.1231C70.269 29.774 69.9975 29.4637 69.6096 29.4637H62.2405C61.8914 29.4637 61.5811 29.7352 61.5811 30.1231V36.7165C61.5811 37.0656 61.8526 37.3759 62.2405 37.3759Z" fill="#2496ED"/>
<path d="M72.4409 37.3759H79.8101C80.1592 37.3759 80.4694 37.0656 80.4694 36.7165V30.1231C80.4694 29.774 80.1592 29.4637 79.8101 29.4637H72.4409C72.0919 29.4637 71.7816 29.7352 71.7816 30.1231V36.7165C71.7816 37.0656 72.0919 37.3759 72.4409 37.3759Z" fill="#2496ED"/>
<path d="M72.4409 27.9121H79.8101C80.1592 27.9121 80.4694 27.6407 80.4694 27.2528V20.6594C80.4694 20.3103 80.1592 20 79.8101 20H72.4409C72.0919 20 71.7816 20.2715 71.7816 20.6594V27.2528C71.7816 27.6019 72.0919 27.9121 72.4409 27.9121Z" fill="#2496ED"/>
<path d="M82.719 46.8002H90.0881C90.4372 46.8002 90.7474 46.5287 90.7474 46.1408V39.5473C90.7474 39.1983 90.4759 38.888 90.0881 38.888H82.719C82.3699 38.888 82.0596 39.1595 82.0596 39.5473V46.1408C82.0984 46.5287 82.3699 46.8002 82.719 46.8002Z" fill="#2496ED"/>
</svg>
