<svg width="300" height="100" viewBox="0 0 300 100" fill="none" xmlns="http://www.w3.org/2000/svg">
<path fill-rule="evenodd" clip-rule="evenodd" d="M113.184 25.3193C113.184 22.2811 110.718 19.8145 107.68 19.8145H62.3193C59.2811 19.8145 56.8145 22.2811 56.8145 25.3193V70.6796C56.8145 73.7178 59.2811 76.1845 62.3193 76.1845H107.68C110.718 76.1845 113.184 73.7178 113.184 70.6796V25.3193Z" fill="#4E3188"/>
<path fill-rule="evenodd" clip-rule="evenodd" d="M109.056 55.601V69.8538C109.056 71.0544 108.093 72.0319 106.898 72.0554L92.3417 72.0553L82.8381 55.601H109.056ZM90.1761 72.0553H64.4254L77.3079 49.7763L90.1761 72.0553ZM62.3578 71.9106C61.5788 71.6119 61.0124 70.8838 60.9491 70.0171L60.943 60.1929L71.4116 42.068H79.5941L62.3578 71.9106ZM87.0774 42.0341C87.7903 42.0371 88.4724 42.4559 88.8406 43.0765C88.8445 43.0828 88.8517 43.0954 88.8517 43.0954L91.0151 46.8416C91.0151 46.8416 91.0277 46.8626 91.0338 46.8727C91.3872 47.4911 91.401 48.2703 91.0476 48.8999C90.3226 50.1684 89.586 51.4307 88.855 52.6961C88.496 53.3115 87.8167 53.713 87.0945 53.722C85.7166 53.7278 82.9537 53.7246 82.9499 53.7246C82.237 53.7216 81.5439 53.3415 81.1751 52.7209C81.1668 52.7075 81.1514 52.68 81.1514 52.68C81.1514 52.68 78.9869 48.9334 78.9825 48.9247C78.6285 48.3063 78.6291 47.5074 78.9825 46.8777C78.9875 46.8685 78.9985 46.85 78.9985 46.85C78.9985 46.85 80.4468 44.3377 81.1718 43.0815C81.5307 42.4661 82.2117 42.0427 82.9334 42.0337C82.9455 42.0337 82.9697 42.0331 82.9697 42.0331L87.0774 42.0341ZM107.563 24.0602L90.4293 53.7246H109.056V26.1451C109.056 25.1781 108.431 24.3558 107.563 24.0602ZM81.8803 23.9431H105.465L92.71 46.0263L80.918 25.6098L81.8803 23.9431ZM87.1749 40.193H72.4945L79.8347 27.4847L87.1749 40.193Z" fill="url(#paint0_radial_942_16434)"/>
<path d="M130.694 47.6357H122.395V72.2386H128.197V64.4913H130.694C138.038 64.4913 141.894 61.9569 141.894 56.0087C141.894 50.1701 138.038 47.6357 130.694 47.6357ZM130.547 59.9732H128.197V52.1884H130.547C134.036 52.1884 136.019 52.9957 136.019 56.0087C136.019 59.0563 134.036 59.9732 130.547 59.9732ZM143.877 72.2386H149.495V62.0665C149.495 59.0189 150.854 57.7704 152.763 57.7704C154.489 57.7704 155.333 58.7623 155.333 61.04V72.2386H160.951V60.1577C160.951 55.4205 158.455 53.2552 154.893 53.2552C152.175 53.2552 150.523 54.6132 149.568 56.5969H149.495V46.2777H143.877V72.2386ZM172.482 72.7519C178.43 72.7519 181.993 68.9344 181.993 63.0208C181.993 57.1101 178.43 53.2552 172.482 53.2552C166.533 53.2552 162.971 57.2572 162.971 63.0208C162.971 68.9344 166.496 72.7519 172.482 72.7519ZM172.482 68.4558C170.242 68.4558 168.7 66.5846 168.7 63.0208C168.7 59.46 170.242 57.5513 172.482 57.5513C174.758 57.5513 176.264 59.46 176.264 63.0208C176.264 66.5846 174.758 68.4558 172.482 68.4558ZM193.595 68.5654C191.943 68.5654 191.283 67.611 191.283 65.4082V57.8454H195.359V53.8059H191.283V47.7453L185.663 48.8121V53.8059H182.468V57.8454H185.663V66.1809C185.663 70.7336 187.722 72.6798 191.98 72.6798C193.485 72.6798 194.843 72.4577 195.982 71.835V67.9051C195.394 68.2741 194.587 68.5654 193.595 68.5654ZM205.898 72.7519C211.846 72.7519 215.407 68.9344 215.407 63.0208C215.407 57.1101 211.846 53.2552 205.898 53.2552C199.95 53.2552 196.386 57.2572 196.386 63.0208C196.386 68.9344 199.912 72.7519 205.898 72.7519ZM205.898 68.4558C203.657 68.4558 202.115 66.5846 202.115 63.0208C202.115 59.46 203.657 57.5513 205.898 57.5513C208.173 57.5513 209.68 59.46 209.68 63.0208C209.68 66.5846 208.173 68.4558 205.898 68.4558ZM230.941 67.5389C233.62 62.9862 242.25 61.4062 242.25 54.3566C242.25 50.0231 239.092 47.1225 233.582 47.1225C228.407 47.1225 225.432 49.951 224.771 53.878L230.059 55.311C230.535 53.1427 231.527 51.8597 233.435 51.8597C235.419 51.8597 236.373 53.1428 236.373 54.7603C236.373 60.3423 224.44 61.6628 224.44 70.7336V72.2386H242.359V67.5389H230.941Z" fill="#191919"/>
<path fill-rule="evenodd" clip-rule="evenodd" d="M145.391 25.3838H138.993V30.7025H142.654V31.9427H138.993V38.6144H137.66V24.1289H145.391V25.3838ZM178.739 38.6144H177.391V24.1289H178.739V38.6144ZM159.935 38.6144H158.585V24.1289H159.935V38.6144ZM155.855 25.3838H149.456V30.7025H153.117V31.9427H149.456V38.6144H148.122V24.1289H155.855V25.3838ZM190.526 25.3838H186.68V38.6144H185.33V25.3838H181.462V24.1289H190.526V25.3838ZM164.004 38.6144H162.67V24.1289H164.105L173.301 36.3432V24.1289H174.651V38.6144H173.335L164.004 26.1835V38.6144ZM199.207 38.6144H197.843V35.0713L191.594 24.1289H193.133L198.525 33.518L203.917 24.1289H205.455L199.207 35.0713V38.6144ZM136.467 38.6144H135.03L129.421 25.9718C129.07 26.7806 125.655 34.5457 125.29 35.369C126.006 35.369 132.128 35.429 132.479 35.4314L133.037 36.6498C131.816 36.6425 126.343 36.6247 124.723 36.6247C124.576 36.9361 123.954 38.3167 123.833 38.6144H122.395L128.814 24.1289H130.048L136.467 38.6144Z" fill="#191919"/>
<defs>
<radialGradient id="paint0_radial_942_16434" cx="0" cy="0" r="1" gradientUnits="userSpaceOnUse" gradientTransform="translate(99.9001 9.22022) scale(66.9636 66.9642)">
<stop stop-color="#F9A6FF"/>
<stop offset="1" stop-color="#EA73FF"/>
</radialGradient>
</defs>
</svg>
