<svg width="300" height="100" viewBox="0 0 300 100" fill="none" xmlns="http://www.w3.org/2000/svg">
<path d="M229.143 62.5415C228.428 62.5484 227.744 62.8382 227.242 63.3475C226.74 63.8569 226.46 64.5444 226.464 65.2596C226.467 65.9748 226.754 66.6595 227.261 67.164C227.768 67.6685 228.454 67.9518 229.169 67.9518C229.884 67.9518 230.57 67.6685 231.077 67.164C231.584 66.6595 231.871 65.9748 231.874 65.2596C231.878 64.5444 231.598 63.8569 231.096 63.3475C230.593 62.8382 229.91 62.5484 229.195 62.5415H229.143ZM229.143 67.6421C228.674 67.6499 228.213 67.5184 227.819 67.2643C227.424 67.0101 227.114 66.6448 226.927 66.2144C226.741 65.784 226.686 65.3079 226.77 64.8463C226.853 64.3847 227.072 63.9583 227.398 63.6211C227.725 63.2839 228.143 63.051 228.602 62.9518C229.061 62.8526 229.538 62.8916 229.975 63.0639C230.411 63.2362 230.786 63.534 231.054 63.9197C231.321 64.3054 231.467 64.7617 231.475 65.2308V65.2706C231.488 65.8859 231.257 66.4813 230.831 66.9258C230.405 67.3703 229.82 67.6275 229.205 67.6408H229.144M218.759 61.8024H212.88V52.5969C212.88 50.4017 212.841 47.5759 209.823 47.5759C206.762 47.5759 206.293 49.9676 206.293 52.4371V61.8018H200.415V42.8715H206.058V45.4585H206.137C206.702 44.4929 207.518 43.6986 208.498 43.1601C209.479 42.6216 210.587 42.3592 211.705 42.4006C217.663 42.4006 218.761 46.3195 218.761 51.4176L218.759 61.8024ZM193.782 40.2839C193.108 40.284 192.448 40.0841 191.887 39.7093C191.326 39.3346 190.889 38.8019 190.631 38.1787C190.372 37.5554 190.305 36.8695 190.436 36.2078C190.568 35.5461 190.892 34.9382 191.369 34.461C191.846 33.9839 192.454 33.6589 193.116 33.5271C193.777 33.3954 194.463 33.4628 195.087 33.7209C195.71 33.979 196.243 34.4161 196.618 34.977C196.993 35.5379 197.193 36.1974 197.193 36.8721C197.193 37.32 197.105 37.7636 196.934 38.1775C196.762 38.5914 196.511 38.9675 196.194 39.2843C195.878 39.6011 195.502 39.8525 195.088 40.024C194.674 40.1955 194.23 40.2838 193.782 40.2839ZM196.722 61.8024H190.837V42.8715H196.722V61.8024ZM221.689 28.0027H187.883C187.116 27.994 186.377 28.2904 185.828 28.8265C185.279 29.3627 184.965 30.0949 184.956 30.8622V64.8083C184.965 65.5759 185.278 66.3086 185.827 66.8454C186.376 67.3821 187.116 67.679 187.883 67.6708H221.689C222.458 67.6805 223.2 67.3844 223.751 66.8477C224.302 66.311 224.618 65.5775 224.628 64.8083V30.8598C224.617 30.0909 224.302 29.3579 223.751 28.8218C223.199 28.2856 222.458 27.9901 221.689 28.0003M168.957 47.4406C166.018 47.4406 164.254 49.4031 164.254 52.2626C164.254 55.1221 166.017 57.0864 168.957 57.0864C171.896 57.0864 173.664 55.127 173.664 52.2626C173.664 49.3982 171.9 47.4406 168.957 47.4406ZM179.075 61.7914H173.664V59.2809H173.583C172.904 60.1941 172.024 60.9381 171.01 61.4552C169.997 61.9722 168.877 62.2482 167.739 62.2617C162.092 62.2617 158.371 58.1855 158.371 52.4212C158.371 47.1271 161.664 42.2659 167.076 42.2659C169.508 42.2659 171.781 42.9315 173.114 44.7764H173.191V33.8644H179.075L179.075 61.7914ZM150.824 50.128C150.835 49.6511 150.749 49.1769 150.572 48.7341C150.394 48.2913 150.129 47.8891 149.792 47.5519C149.454 47.2147 149.052 46.9495 148.609 46.7724C148.166 46.5953 147.692 46.5099 147.215 46.5215C146.188 46.4576 145.177 46.7999 144.4 47.4745C143.623 48.1492 143.142 49.1022 143.061 50.128H150.824ZM155.803 58.5167C154.826 59.7013 153.598 60.6537 152.208 61.3051C150.818 61.9565 149.3 62.2906 147.765 62.2831C141.886 62.2831 137.18 58.3594 137.18 52.2834C137.18 46.2074 141.886 42.2855 147.765 42.2855C153.259 42.2855 156.704 46.2043 156.704 52.2834V54.1265H143.061C143.231 55.1717 143.773 56.1204 144.587 56.7976C145.401 57.4749 146.432 57.8351 147.491 57.812C148.328 57.8068 149.15 57.5924 149.882 57.1884C150.615 56.7843 151.235 56.2035 151.686 55.4986L155.803 58.5167ZM97.3675 42.8666H103.012V45.4536H103.093C103.656 44.4876 104.472 43.6929 105.452 43.1544C106.433 42.6158 107.541 42.3536 108.659 42.3957C114.619 42.3957 115.717 46.3176 115.717 51.4127V61.7938H109.839V52.5902C109.839 50.3932 109.798 47.5692 106.777 47.5692C103.722 47.5692 103.25 49.9615 103.25 52.4303V61.7914H97.3718L97.3675 42.8666ZM118.697 33.8662H124.576V50.561L131.238 42.8562H138.445L130.729 51.6203L138.282 61.803H130.894L124.654 52.4457H124.577V61.8018H118.699L118.697 33.8662ZM88.23 42.8648H94.1082V61.7951H88.23V42.8648ZM91.1691 33.4535C91.8435 33.4536 92.5027 33.6537 93.0634 34.0285C93.6241 34.4033 94.0611 34.9359 94.319 35.559C94.577 36.1821 94.6445 36.8677 94.5128 37.5291C94.3812 38.1906 94.0564 38.7981 93.5795 39.2749C93.1026 39.7518 92.4949 40.0765 91.8335 40.208C91.172 40.3395 90.4864 40.272 89.8634 40.0138C89.2403 39.7557 88.7078 39.3187 88.3331 38.7579C87.9585 38.1972 87.7585 37.5379 87.7585 36.8635C87.7585 36.4156 87.8467 35.9722 88.0181 35.5584C88.1895 35.1447 88.4408 34.7687 88.7575 34.4521C89.0742 34.1354 89.4502 33.8842 89.864 33.7129C90.2777 33.5416 90.7212 33.4534 91.1691 33.4535ZM68.0781 33.8705H74.197V56.1587H85.5248V61.8055H68.0781V33.8705ZM229.572 65.4181C229.673 65.4191 229.773 65.3994 229.865 65.3603C229.958 65.3211 230.042 65.2633 230.111 65.1904C230.181 65.1176 230.234 65.0312 230.269 64.9367C230.304 64.8422 230.319 64.7416 230.313 64.6411C230.313 64.09 229.981 63.8267 229.298 63.8267H228.196V66.7119H228.611V65.4543H229.12L229.132 65.4696L229.922 66.7119H230.366L229.515 65.4261L229.572 65.4181ZM229.093 65.1291H228.612V64.1537H229.221C229.536 64.1537 229.895 64.2051 229.895 64.6172C229.895 65.0912 229.532 65.1291 229.09 65.1291" fill="#2867B2"/>
</svg>
