<svg width="300" height="100" viewBox="0 0 300 100" fill="none" xmlns="http://www.w3.org/2000/svg">
<path d="M130.121 51.33L126.602 41.8438C126.459 41.4558 125.91 41.4558 125.766 41.8438L122.247 51.3306C122.222 51.398 122.214 51.4705 122.223 51.5418C122.232 51.6132 122.259 51.6813 122.3 51.7403C122.341 51.7993 122.395 51.8475 122.459 51.8808C122.523 51.9141 122.594 51.9315 122.666 51.9314H129.703C129.775 51.9314 129.846 51.914 129.91 51.8807C129.973 51.8474 130.028 51.7991 130.069 51.7401C130.11 51.681 130.136 51.6129 130.145 51.5416C130.154 51.4702 130.146 51.3977 130.121 51.3303M131.747 56.6621H120.622C120.531 56.6621 120.442 56.6899 120.368 56.7419C120.293 56.7939 120.236 56.8675 120.204 56.9528L118.014 62.8554C117.982 62.9407 117.925 63.0143 117.85 63.0663C117.776 63.1183 117.687 63.1461 117.596 63.1461H112.774C112.701 63.1461 112.629 63.1282 112.565 63.094C112.501 63.0599 112.446 63.0104 112.405 62.95C112.364 62.8897 112.338 62.8202 112.331 62.7477C112.323 62.6752 112.333 62.602 112.36 62.5343L123.462 34.879C123.495 34.7964 123.552 34.7256 123.626 34.6758C123.7 34.626 123.787 34.5994 123.876 34.5995H128.493C128.675 34.5995 128.839 34.7101 128.907 34.879L140.008 62.534C140.035 62.6017 140.045 62.675 140.038 62.7476C140.03 62.8201 140.004 62.8897 139.964 62.9502C139.923 63.0106 139.868 63.0601 139.803 63.0943C139.739 63.1286 139.667 63.1465 139.594 63.1464H134.773C134.682 63.1464 134.593 63.1185 134.518 63.0665C134.444 63.0144 134.387 62.9408 134.355 62.8554L132.164 56.9528C132.133 56.8675 132.076 56.7939 132.001 56.7419C131.926 56.6899 131.837 56.6621 131.746 56.6621M142.267 44.3051H146.391C146.509 44.3051 146.623 44.3521 146.706 44.4357C146.79 44.5194 146.837 44.6328 146.837 44.7511V62.7002C146.837 62.8185 146.79 62.9319 146.706 63.0155C146.623 63.0991 146.509 63.1461 146.391 63.1461H142.267C142.149 63.1461 142.035 63.0991 141.952 63.0155C141.868 62.9319 141.821 62.8185 141.821 62.7002V44.7508C141.821 44.6325 141.868 44.5191 141.952 44.4355C142.035 44.3518 142.149 44.3048 142.267 44.3048M161.878 48.6713C161.878 48.7895 161.831 48.903 161.747 48.9866C161.664 49.0702 161.55 49.1172 161.432 49.1172H161.307C159.268 49.1172 157.772 49.6066 156.821 50.5853C155.869 51.564 155.394 53.1819 155.394 55.4384V62.7002C155.394 62.8185 155.347 62.9319 155.263 63.0155C155.18 63.0991 155.066 63.1461 154.948 63.1461H150.864C150.746 63.1461 150.633 63.0991 150.549 63.0155C150.465 62.9319 150.418 62.8185 150.418 62.7002V44.7508C150.418 44.6325 150.465 44.5191 150.549 44.4355C150.633 44.3518 150.746 44.3048 150.864 44.3048H154.907C155.025 44.3048 155.139 44.3518 155.222 44.4355C155.306 44.5191 155.353 44.6325 155.353 44.7508V48.3011H155.435C155.924 46.8331 156.699 45.7054 157.76 44.9164C158.819 44.1282 160.125 43.7337 161.674 43.7337H161.878V48.671V48.6713ZM173.155 48.5054C173.036 48.5054 172.923 48.5524 172.839 48.636C172.756 48.7196 172.709 48.833 172.709 48.9513V56.4171C172.709 57.1785 172.857 57.7222 173.157 58.0484C173.456 58.3745 173.973 58.5377 174.707 58.5377H175.117C175.235 58.5377 175.349 58.5847 175.432 58.6683C175.516 58.752 175.563 58.8654 175.563 58.9837V62.7406C175.563 62.8589 175.516 62.9723 175.432 63.056C175.349 63.1396 175.235 63.1866 175.117 63.1866H173.361C171.539 63.1866 170.139 62.7177 169.16 61.7797C168.181 60.8418 167.692 59.4489 167.692 57.5997V48.9513C167.692 48.833 167.645 48.7196 167.561 48.636C167.478 48.5524 167.364 48.5054 167.246 48.5054H164.672C164.554 48.5054 164.44 48.4584 164.356 48.3748C164.273 48.2911 164.226 48.1777 164.226 48.0594V44.7508C164.226 44.6325 164.273 44.5191 164.356 44.4355C164.44 44.3518 164.554 44.3048 164.672 44.3048H167.246C167.365 44.3048 167.478 44.2579 167.562 44.1742C167.645 44.0906 167.692 43.9772 167.692 43.8589V37.2062C167.692 37.088 167.739 36.9745 167.823 36.8909C167.907 36.8073 168.02 36.7603 168.138 36.7603H172.262C172.381 36.7603 172.494 36.8073 172.578 36.8909C172.661 36.9745 172.708 37.088 172.708 37.2062V43.8589C172.708 43.9772 172.755 44.0906 172.839 44.1742C172.923 44.2579 173.036 44.3048 173.154 44.3048H176.137C176.255 44.3048 176.368 44.3518 176.452 44.4355C176.536 44.5191 176.583 44.6325 176.583 44.7508V48.0597C176.583 48.178 176.536 48.2914 176.452 48.375C176.368 48.4587 176.255 48.5057 176.137 48.5057H173.155V48.5054ZM192.039 57.559C192.977 56.5803 193.446 55.3025 193.446 53.7253C193.446 52.1491 192.977 50.8707 192.039 49.892C191.101 48.9133 189.871 48.4239 188.348 48.4239C186.826 48.4239 185.596 48.9133 184.658 49.892C183.72 50.8707 183.251 52.1491 183.251 53.7253C183.251 55.3025 183.72 56.5803 184.658 57.559C185.596 58.5377 186.826 59.0271 188.348 59.0271C189.871 59.0271 191.101 58.5377 192.039 57.559ZM182.517 62.575C181.13 61.7869 180.036 60.6378 179.234 59.129C178.432 57.6202 178.031 55.8192 178.031 53.7253C178.031 51.6324 178.432 49.8307 179.234 48.3219C180.036 46.8131 181.13 45.665 182.517 44.8759C183.904 44.0875 185.426 43.6933 187.084 43.6933C188.552 43.6933 189.81 43.9787 190.857 44.5495C191.903 45.1203 192.739 45.9227 193.365 46.9558H193.446V44.7508C193.446 44.6325 193.493 44.5191 193.577 44.4355C193.66 44.3518 193.774 44.3048 193.892 44.3048H197.976C198.094 44.3048 198.207 44.3518 198.291 44.4355C198.375 44.5191 198.422 44.6325 198.422 44.7508V62.6999C198.422 62.8182 198.375 62.9316 198.291 63.0152C198.207 63.0989 198.094 63.1458 197.976 63.1458H193.892C193.774 63.1458 193.66 63.0989 193.577 63.0152C193.493 62.9316 193.446 62.8182 193.446 62.6999V60.4951H193.365C192.739 61.5288 191.903 62.3303 190.857 62.9012C189.81 63.472 188.553 63.7574 187.084 63.7574C185.426 63.7574 183.904 63.3632 182.517 62.575ZM215.404 57.559C216.342 56.5803 216.811 55.3025 216.811 53.7253C216.811 52.1491 216.342 50.8707 215.404 49.892C214.467 48.9133 213.236 48.4239 211.714 48.4239C210.191 48.4239 208.961 48.9133 208.023 49.892C207.085 50.8707 206.616 52.1491 206.616 53.7253C206.616 55.3025 207.085 56.5803 208.023 57.559C208.961 58.5377 210.191 59.0271 211.714 59.0271C213.236 59.0271 214.467 58.5377 215.404 57.559ZM209.206 62.9012C208.159 62.3303 207.322 61.5288 206.697 60.4951H206.616V62.6999C206.616 62.8182 206.569 62.9316 206.485 63.0152C206.401 63.0989 206.288 63.1458 206.17 63.1458H202.046C201.927 63.1458 201.814 63.0989 201.73 63.0152C201.647 62.9316 201.6 62.8182 201.6 62.6999V35.0446C201.6 34.9263 201.647 34.8129 201.73 34.7292C201.814 34.6456 201.927 34.5986 202.046 34.5986H206.17C206.288 34.5986 206.401 34.6456 206.485 34.7292C206.569 34.8129 206.616 34.9263 206.616 35.0446V46.9556H206.697C207.322 45.9224 208.159 45.1203 209.206 44.5495C210.252 43.9784 211.51 43.693 212.978 43.693C214.636 43.693 216.159 44.0872 217.545 44.8756C218.932 45.6647 220.026 46.8128 220.828 48.3213C221.63 49.831 222.032 51.6327 222.032 53.7256C222.032 55.8195 221.63 57.6202 220.828 59.1293C220.026 60.6381 218.932 61.7872 217.546 62.575C216.159 63.3635 214.636 63.758 212.978 63.758C211.51 63.758 210.252 63.4726 209.206 62.9015M228.98 63.1461H224.856C224.738 63.1461 224.624 63.0991 224.541 63.0155C224.457 62.9319 224.41 62.8185 224.41 62.7002V35.0455C224.41 34.9272 224.457 34.8138 224.541 34.7301C224.624 34.6465 224.738 34.5995 224.856 34.5995H228.98C229.098 34.5995 229.212 34.6465 229.295 34.7301C229.379 34.8138 229.426 34.9272 229.426 35.0455V62.7002C229.426 62.8185 229.379 62.9319 229.295 63.0155C229.212 63.0991 229.098 63.1461 228.98 63.1461ZM238.708 48.6689C238.025 49.2022 237.563 49.9722 237.324 50.9795C237.258 51.2572 237.475 51.5235 237.76 51.5235H245.609C245.881 51.5235 246.095 51.2798 246.051 51.011C245.894 50.0582 245.486 49.2986 244.826 48.7301C244.051 48.0642 243.038 47.7312 241.787 47.7312C240.536 47.7312 239.51 48.0437 238.708 48.6689ZM248.761 46.3238C250.365 48.0779 251.167 50.5588 251.167 53.7664V54.2991C251.167 54.4174 251.12 54.5308 251.036 54.6145C250.953 54.6981 250.839 54.7451 250.721 54.7451H237.609C237.544 54.7452 237.479 54.7596 237.42 54.7872C237.361 54.8149 237.308 54.8551 237.266 54.9051C237.224 54.9551 237.194 55.0136 237.177 55.0767C237.159 55.1397 237.156 55.2057 237.167 55.2701C237.377 56.4617 237.904 57.4083 238.749 58.1096C239.714 58.9123 240.931 59.3128 242.399 59.3128C244.294 59.3128 246.049 58.5731 247.662 57.0934C247.859 56.9127 248.171 56.951 248.324 57.1707L250.329 60.0486C250.392 60.1381 250.42 60.2476 250.407 60.3562C250.395 60.4649 250.342 60.5651 250.261 60.6378C249.277 61.4993 248.183 62.2262 247.007 62.7995C245.702 63.4381 244.166 63.758 242.399 63.758C240.36 63.758 238.579 63.3429 237.057 62.5141C235.533 61.6852 234.351 60.5162 233.509 59.0068C232.666 57.4981 232.244 55.7514 232.244 53.7664C232.244 51.7822 232.652 50.0287 233.468 48.5057C234.283 46.9835 235.425 45.8008 236.894 44.9577C238.362 44.1155 240.074 43.6936 242.032 43.6936C244.913 43.6936 247.156 44.5706 248.761 46.3238ZM147.376 37.6694C147.376 39.3515 146.012 40.7153 144.33 40.7153C142.647 40.7153 141.283 39.3515 141.283 37.6691C141.283 35.9867 142.647 34.623 144.33 34.623C146.012 34.623 147.376 35.9867 147.376 37.6691" fill="#333333"/>
<path d="M72.4877 26.5555L52.8778 34.6697C51.7873 35.121 51.7986 36.6702 52.8959 37.1052L72.5876 44.914C74.3177 45.6002 76.2445 45.6002 77.9747 44.914L97.6666 37.1049C98.7636 36.6702 98.7755 35.1213 97.6844 34.67L78.0751 26.5552C76.2861 25.8149 74.2764 25.8149 72.4874 26.5552" fill="#FCB400"/>
<path d="M77.0273 49.1775V68.6853C77.0273 69.6129 77.9629 70.2485 78.8254 69.9066L100.768 61.3896C101.013 61.2926 101.223 61.1243 101.37 60.9065C101.518 60.6888 101.597 60.4316 101.597 60.1683V40.6608C101.597 39.7329 100.662 39.0976 99.7993 39.4395L77.8568 47.9565C77.6121 48.0535 77.4022 48.2219 77.2543 48.4396C77.1065 48.6574 77.0274 48.9145 77.0273 49.1778" fill="#18BFFF"/>
<path d="M71.9034 50.1836L65.3913 53.3279L64.7301 53.6475L50.9836 60.2341C50.1125 60.6545 49 60.0195 49 59.0515V40.742C49 40.3918 49.1796 40.0895 49.4204 39.862C49.5192 39.7636 49.6313 39.6796 49.7534 39.6123C50.0816 39.4152 50.5501 39.3626 50.9485 39.5201L71.794 47.7797C72.8535 48.2001 72.9368 49.6848 71.9034 50.1839" fill="#F82B60"/>
<path d="M71.9049 50.1836L65.3928 53.3279L49.4219 39.8617C49.5207 39.7635 49.6328 39.6795 49.7549 39.6123C50.0831 39.4152 50.5516 39.3626 50.95 39.5201L71.7955 47.7797C72.855 48.2001 72.9383 49.6848 71.9049 50.1839" fill="#BA1E45"/>
</svg>
